<svg xmlns="http://www.w3.org/2000/svg" width="32" height="48" viewBox="0 0 32 48"><g><g><path fill="#211d1e" d="M17.255 40.482l.319-.24c.027-.021 2.768-2.122 2.768-4.518v-3.323h-4.577v1.262c0 3.63-2.538 4.923-4.913 4.923v-1.598c1.239 0 3.317-.433 3.317-3.325v-3.426l2.783-2.788c1.141-1.473.517-3.625-.424-4.469-.576-.517-.86-.23-.997-.094l-8.23 8.249-1.129-1.13 3.551-3.56h-.698V20.89l-3.848 3.086C3.86 25.19 3.42 25.74 3.42 27.476v14.667h13.835zm4.683-4.758c0 2.647-2.235 4.81-3.086 5.536v.883h2.058v5.955h-1.597v-4.356H2.391v4.356H.794v-5.955h1.03V27.476c0-2.41.874-3.389 2.315-4.714l4.886-3.918V3.76A2.862 2.862 0 0 1 11.88.9h16.462a2.862 2.862 0 0 1 2.856 2.861v25.778a2.862 2.862 0 0 1-2.856 2.863h-6.404zm-7.535-13.97c.905-.906 2.157-.892 3.19.034 1.632 1.464 2.272 4.573.58 6.693l-.06.066-2.247 2.253h8.591V2.5H11.88c-.694 0-1.259.565-1.259 1.261v21.785zM28.342 30.8c.694 0 1.26-.566 1.26-1.262V3.76c0-.696-.566-1.261-1.26-1.261h-2.288V30.8z"/></g></g></svg>