<svg xmlns="http://www.w3.org/2000/svg" width="46" height="48" viewBox="0 0 46 48"><g><g><path fill="#211d1e" d="M16.284 42.96l.317-.24c.026-.02 2.63-2.022 2.63-4.297v-.385h-3.514c-.792 3.073-3.787 4.147-4.68 4.147v-1.6c.022-.001 3.282-.627 3.282-4.135v-2.28l.203-.228c.051-.058 1.258-1.414 2.314-2.478.977-1.263.488-2.667-.18-3.268-.323-.291-.806-.538-1.276-.067l-7.858 7.899-1.125-1.132 2.03-2.04v-5.8l-2.637 2.12C4.542 30.33 4.125 30.853 4.125 32.5l.001 11.837h12.158zm2.946-6.708h1.592v.186h15.105V6.635c0-1.625.675-3.093 1.757-4.137h-23.55c-2.27 0-4.116 1.856-4.116 4.137v24.622l4.237-4.259c.976-.982 2.368-.98 3.463.006 1.348 1.213 1.842 3.598.335 5.492l-.059.067a68.07 68.07 0 0 0-2.083 2.219v1.656h3.32zm1.592 2.171c0 2.535-2.121 4.608-2.947 5.317v.597h1.965v3.761h-1.592v-2.162H2.161v2.162H.569v-3.76h1.965V32.5c0-2.322.839-3.263 2.221-4.538l3.671-2.954V6.635c0-3.164 2.56-5.736 5.707-5.736h27.501v.098c2.163.443 3.743 2.326 3.743 4.65v1.787H39.67v-1.6h4.115v-.187c0-1.634-1.116-2.903-2.664-3.117a4.135 4.135 0 0 0-3.602 4.105v31.403H20.822zm10.009-27.04H15.115v-1.6h15.716zm0 4.937H15.115v-1.6h15.716zm-5.894 4.936h-9.822v-1.6h9.822zm3.93 13.164l-1.313-1.317h-2.43v-2.444l-1.312-1.318 1.311-1.319v-2.443h2.431l1.312-1.319 1.312 1.319h2.43v2.443l1.312 1.32-1.312 1.317v2.444h-2.43zm-2.152-2.918h1.499l.652.656.653-.656h1.498v-1.505l.652-.656-.652-.656V27.18h-1.498l-.653-.656-.652.656h-1.499v1.505l-.652.656.652.656z"/></g></g></svg>