<svg xmlns="http://www.w3.org/2000/svg" width="50" height="47" viewBox="0 0 50 47"><g><g><path fill="#211d1e" d="M2.453 47.198l-1.127-1.13 6.711-6.72.453.132c.027.007 2.878.792 4.53-.862l2.808-2.813-3.656-3.66-.151.151c-2.36 2.361-3.684 2.361-5.88 2.361v-1.596c2.081 0 2.86 0 4.753-1.896l2.36-2.361h3.472c1.856-.232 2.907-1.927 2.845-3.054-.033-.592-.343-.673-.672-.673h-6.794l-.019.018-.018-.018h-3.8V23.48h3.177l4.784-4.79h-5.835c-3.323 0-4.255.829-5.734 2.865l-3.196 4.266-1.275-.957 3.189-4.258c1.762-2.427 3.196-3.513 7.016-3.513h7.43L34.1.795l15.694 15.714-26.619 26.654-6.219-6.228-2.809 2.813c-1.857 1.858-4.543 1.584-5.627 1.375zM18.9 23.48c1.302 0 2.19.857 2.264 2.181.11 2-1.629 4.436-4.302 4.735l-.088.004h-2.86l-.614.616 9.876 9.889L47.54 16.509 34.1 3.052 13.7 23.48zm2.092 11.662l-2.749-2.753 1.127-1.13 1.68 1.682a3.9 3.9 0 0 1 4.254 0l14.283-14.303a3.908 3.908 0 0 1 0-4.258l-3.359-3.362a3.895 3.895 0 0 1-4.254-.001L20.098 22.908l-1.128-1.13L31.915 8.817l.564.566a2.294 2.294 0 0 0 3.242 0l.564-.566 5.498 5.506-.564.564a2.3 2.3 0 0 0 0 3.246l.564.565L25.36 35.142l-.564-.566c-.866-.866-2.376-.868-3.243 0zm2.748-7.129l-1.127-1.13 1.457-1.457 1.127 1.128zm10.197-10.21l-1.128-1.129 1.457-1.458 1.128 1.128zm-4.94 7.695a3.869 3.869 0 0 1-2.75-1.138 3.868 3.868 0 0 1-1.138-2.752 3.87 3.87 0 0 1 1.139-2.753 3.856 3.856 0 0 1 2.748-1.14c1.038 0 2.015.404 2.75 1.14a3.87 3.87 0 0 1 1.138 2.753 3.87 3.87 0 0 1-1.139 2.752 3.868 3.868 0 0 1-2.749 1.138zm0-6.187c-.613 0-1.189.24-1.622.673a2.282 2.282 0 0 0-.671 1.624c0 .612.238 1.19.67 1.623.867.866 2.377.866 3.244 0 .433-.434.671-1.01.671-1.623 0-.614-.238-1.19-.671-1.624a2.28 2.28 0 0 0-1.622-.673z"/></g></g></svg>